<?xml version="1.0" encoding="utf-8"?>
<!-- Generator: Adobe Illustrator 21.0.2, SVG Export Plug-In . SVG Version: 6.00 Build 0)  -->
<svg version="1.1" id="Layer_1" xmlns="http://www.w3.org/2000/svg" xmlns:xlink="http://www.w3.org/1999/xlink" x="0px" y="0px"
	 viewBox="0 0 500 500" style="enable-background:new 0 0 500 500;" xml:space="preserve">
<style type="text/css">
	.st0{fill:#3D84A8;}
	.st1{fill:#FFFFFF;}
</style>
<g>
	<rect class="st0" width="500" height="500"/>
</g>
<path class="st1" d="M250,426c-23.8,0-46.8-4.7-68.5-13.8c-21-8.9-39.8-21.6-55.9-37.7c-16.2-16.2-28.8-35-37.7-55.9
	C78.7,296.8,74,273.8,74,250c0-23.8,4.7-46.8,13.8-68.5c8.9-21,21.6-39.8,37.7-55.9s35-28.8,55.9-37.7C203.2,78.7,226.2,74,250,74
	c23.8,0,46.8,4.7,68.5,13.8c21,8.9,39.8,21.6,55.9,37.7c16.2,16.2,28.8,35,37.7,55.9c9.2,21.7,13.8,44.8,13.8,68.5
	c0,23.8-4.7,46.8-13.8,68.5c-8.9,21-21.6,39.8-37.7,55.9c-16.2,16.2-35,28.8-55.9,37.7C296.8,421.3,273.8,426,250,426z M250,90.8
	c-21.5,0-42.4,4.2-62,12.5c-19,8-36,19.5-50.6,34.1s-26.1,31.7-34.1,50.6c-8.3,19.6-12.5,40.5-12.5,62s4.2,42.4,12.5,62
	c8,19,19.5,36,34.1,50.6c14.6,14.6,31.7,26.1,50.6,34.1c19.6,8.3,40.5,12.5,62,12.5s42.4-4.2,62-12.5c19-8,36-19.5,50.6-34.1
	c14.6-14.6,26.1-31.7,34.1-50.6c8.3-19.6,12.5-40.5,12.5-62s-4.2-42.4-12.5-62c-8-19-19.5-36-34.1-50.6
	c-14.6-14.6-31.7-26.1-50.6-34.1C292.4,95,271.5,90.8,250,90.8z"/>
<g>
	<path class="st1" d="M233.9,258.2c0.6,0.1,1.3,0.2,2,0.2c0.7,0,1.4,0,2.2,0c9.3,0,18-2,26.3-6c8.2-4,15.5-9.1,21.6-15.2
		c6.2-6.2,11-13,14.6-20.6c3.6-7.6,5.3-14.9,5.3-22c0-5.1-0.9-9.9-2.8-14.5c-1.9-4.6-4.8-8.6-8.8-12c-4-3.4-9.1-6.1-15.3-8.1
		c-6.2-2-13.6-3-22.3-3c-9.7,0-18,0.9-25,2.7c-7,1.8-13,4.1-18,7c-5.1,2.9-9.3,6.2-12.8,9.9c-3.5,3.7-6.4,7.6-8.9,11.5
		c-2.5,3.9-4.8,7.8-6.8,11.5c-2,3.7-4.1,7-6.3,9.9c-2.2,2.9-4.6,5.2-7.3,7c-2.7,1.8-6,2.7-9.9,2.7c-5.3,0-9.3-1.4-12-4.1
		c-2.7-2.7-4-6.5-4-11.4c0-4.6,1.2-9.5,3.8-14.8c2.5-5.3,6.1-10.6,10.7-16c4.6-5.3,10.3-10.5,17-15.4c6.7-4.9,14.2-9.3,22.6-13.1
		c8.4-3.8,17.5-6.8,27.4-9.1c9.9-2.3,20.4-3.4,31.4-3.4c10.9,0,21.3,1.4,31.2,4.1c9.9,2.8,18.8,6.9,26.4,12.4
		c7.7,5.5,13.8,12.4,18.3,20.7c4.5,8.3,6.8,18,6.8,29c0,7.4-1.4,14.6-4.1,21.3c-2.7,6.8-6.4,13.1-10.9,19c-4.6,5.9-9.9,11.3-16,16.3
		c-6.1,4.9-12.6,9.3-19.6,13.2c-6.9,3.8-14,7.1-21.3,9.7c-7.3,2.7-14.3,4.6-21.1,5.7c1,5,2.5,10.6,4.7,16.8c2.2,6.2,4.8,12.1,8,17.7
		c3.1,5.6,6.6,10.3,10.5,14.3c3.8,3.9,7.9,6.1,12.1,6.4c0.9,0.1,1.6,0.2,2.4,0.2c0.7,0,1.5,0,2.2,0c7.8,0,14.7-1.3,20.7-3.8
		c6.1-2.6,11.1-5.4,15.2-8.5c4.8-3.5,8.9-7.6,12.4-12.3c3.3-3.7,6.6-5.6,10.1-5.6c2.1,0,3.9,0.7,5.4,2.2c1.5,1.5,2.2,3.5,2.2,6.1
		c0,2.4-0.8,5.3-2.3,8.5c-1.5,3.2-4.2,6.6-7.9,10.1c-11,10.3-21.7,17.9-32.2,22.6c-10.5,4.7-20.4,7.1-29.8,7.1
		c-7.7,0-14.7-2.2-21.2-6.5c-6.5-4.4-12.4-10.3-17.7-17.7c-5.3-7.4-10.2-16.1-14.5-26.1c-4.4-9.9-8.2-20.5-11.7-31.5
		c-1.9,4.4-3.9,9.5-5.9,15.4c-2,5.9-4.2,12-6.5,18.3c-2.3,6.3-4.8,12.5-7.3,18.6c-2.6,6.1-5.4,11.6-8.5,16.4
		c-3.1,4.8-6.4,8.8-9.9,11.7c-3.5,3-7.3,4.5-11.5,4.5c-3.4,0-6.2-0.5-8.3-1.6c-2.1-1.1-3.8-2.4-4.9-4c-1.2-1.6-2-3.4-2.5-5.3
		c-0.5-1.9-0.7-3.7-0.7-5.4c0-2.4,0.3-4.9,1-7.5c0.6-2.6,1.5-4.9,2.7-7.2l47.1-86.2c4-7.2,8.1-14.2,12.2-21c4.1-6.8,8.1-12.7,12-18
		c3.9-5.2,7.6-9.4,11-12.5c3.5-3.1,6.6-4.7,9.3-4.7c0.7,0,1.6,0.1,2.7,0.4c1.1,0.3,2,0.7,2.9,1.4c0.9,0.7,1.6,1.7,2.2,3
		c0.6,1.3,1,3,1,5c0,2-0.6,4.8-1.8,8.5c-1.2,3.6-2.7,7.8-4.6,12.4c-1.9,4.7-4.1,9.8-6.7,15.4S236.6,252.4,233.9,258.2z"/>
</g>
</svg>
